REM DIRINDEX 1\2,1\3,1\4,1\5
REM DIRNAME folder01,folder02,folder03,folder04,folder05
TITLE ""
FILE "Round-11-266-267.mp3" MP3
  TRACK 01 AUDIO
    TITLE "0:"
    INDEX 01 00:00:00
  TRACK 02 AUDIO
    TITLE "2:cjc093_3001"
    INDEX 01 00:00:01
  TRACK 03 AUDIO
    TITLE "0:"
    INDEX 01 00:01:19
  TRACK 04 AUDIO
    TITLE "3:cjc093_3002"
    INDEX 01 00:01:40
  TRACK 05 AUDIO
    TITLE "0:"
    INDEX 01 00:03:57
  TRACK 06 AUDIO
    TITLE "4:cjc093_3003"
    INDEX 01 00:03:61
  TRACK 07 AUDIO
    TITLE "0:"
    INDEX 01 00:06:39
  TRACK 08 AUDIO
    TITLE "3:cjc093_3004"
    INDEX 01 00:07:52
  TRACK 09 AUDIO
    TITLE "0:"
    INDEX 01 00:09:18
  TRACK 10 AUDIO
    TITLE "4:cjc093_3005"
    INDEX 01 00:09:34
  TRACK 11 AUDIO
    TITLE "0:"
    INDEX 01 00:12:30
  TRACK 12 AUDIO
    TITLE "2:cjc093_3006"
    INDEX 01 00:13:43
  TRACK 13 AUDIO
    TITLE "0:"
    INDEX 01 00:14:43
  TRACK 14 AUDIO
    TITLE "3:cjc093_3007"
    INDEX 01 00:15:03
  TRACK 15 AUDIO
    TITLE "0:"
    INDEX 01 00:16:67
  TRACK 16 AUDIO
    TITLE "4:cjc093_3008"
    INDEX 01 00:16:69
  TRACK 17 AUDIO
    TITLE "0:"
    INDEX 01 00:19:42
  TRACK 18 AUDIO
    TITLE "2:cjc093_3009"
    INDEX 01 00:20:53
  TRACK 19 AUDIO
    TITLE "0:"
    INDEX 01 00:21:58
  TRACK 20 AUDIO
    TITLE "3:cjc093_3010"
    INDEX 01 00:22:19
  TRACK 21 AUDIO
    TITLE "0:"
    INDEX 01 00:23:36
  TRACK 22 AUDIO
    TITLE "4:cjc093_3011"
    INDEX 01 00:23:46
  TRACK 23 AUDIO
    TITLE "0:"
    INDEX 01 00:26:07
  TRACK 24 AUDIO
    TITLE "2:cjc093_3012"
    INDEX 01 00:27:18
  TRACK 25 AUDIO
    TITLE "0:"
    INDEX 01 00:28:31
  TRACK 26 AUDIO
    TITLE "3:cjc093_3013"
    INDEX 01 00:28:57
  TRACK 27 AUDIO
    TITLE "0:"
    INDEX 01 00:29:70
  TRACK 28 AUDIO
    TITLE "4:cjc093_3014"
    INDEX 01 00:30:48
  TRACK 29 AUDIO
    TITLE "0:"
    INDEX 01 00:35:31
  TRACK 30 AUDIO
    TITLE "2:cjc093_3015"
    INDEX 01 00:36:42
  TRACK 31 AUDIO
    TITLE "0:"
    INDEX 01 00:37:73
  TRACK 32 AUDIO
    TITLE "3:cjc093_3016"
    INDEX 01 00:38:16
  TRACK 33 AUDIO
    TITLE "0:"
    INDEX 01 00:40:07
  TRACK 34 AUDIO
    TITLE "4:cjc093_3017"
    INDEX 01 00:40:54
  TRACK 35 AUDIO
    TITLE "0:"
    INDEX 01 00:44:42
  TRACK 36 AUDIO
    TITLE "2:cjc093_3018"
    INDEX 01 00:45:55
  TRACK 37 AUDIO
    TITLE "0:"
    INDEX 01 00:47:13
  TRACK 38 AUDIO
    TITLE "3:cjc093_3019"
    INDEX 01 00:47:38
  TRACK 39 AUDIO
    TITLE "0:"
    INDEX 01 00:49:06
  TRACK 40 AUDIO
    TITLE "4:cjc093_3020"
    INDEX 01 00:49:29
  TRACK 41 AUDIO
    TITLE "0:"
    INDEX 01 00:53:33
  TRACK 42 AUDIO
    TITLE "2:cjc093_3021"
    INDEX 01 00:54:42
  TRACK 43 AUDIO
    TITLE "0:"
    INDEX 01 00:55:67
  TRACK 44 AUDIO
    TITLE "3:cjc093_3022"
    INDEX 01 00:56:25
  TRACK 45 AUDIO
    TITLE "0:"
    INDEX 01 00:57:43
  TRACK 46 AUDIO
    TITLE "4:cjc093_3023"
    INDEX 01 00:58:05
  TRACK 47 AUDIO
    TITLE "0:"
    INDEX 01 01:01:48
  TRACK 48 AUDIO
    TITLE "3:cjc093_3024"
    INDEX 01 01:02:57
  TRACK 49 AUDIO
    TITLE "0:"
    INDEX 01 01:04:03
  TRACK 50 AUDIO
    TITLE "4:cjc093_3025"
    INDEX 01 01:04:56
  TRACK 51 AUDIO
    TITLE "0:"
    INDEX 01 01:07:06
  TRACK 52 AUDIO
    TITLE "2:cjc093_3026"
    INDEX 01 01:08:17
  TRACK 53 AUDIO
    TITLE "0:"
    INDEX 01 01:09:42
  TRACK 54 AUDIO
    TITLE "3:cjc093_3027"
    INDEX 01 01:09:71
  TRACK 55 AUDIO
    TITLE "0:"
    INDEX 01 01:10:73
  TRACK 56 AUDIO
    TITLE "4:cjc093_3028"
    INDEX 01 01:11:45
  TRACK 57 AUDIO
    TITLE "0:"
    INDEX 01 01:14:33
  TRACK 58 AUDIO
    TITLE "2:cjc093_3029"
    INDEX 01 01:15:48
  TRACK 59 AUDIO
    TITLE "0:"
    INDEX 01 01:16:54
  TRACK 60 AUDIO
    TITLE "3:cjc093_3030"
    INDEX 01 01:17:14
  TRACK 61 AUDIO
    TITLE "0:"
    INDEX 01 01:18:25
  TRACK 62 AUDIO
    TITLE "4:cjc093_3031"
    INDEX 01 01:18:68
  TRACK 63 AUDIO
    TITLE "0:"
    INDEX 01 01:20:61
  TRACK 64 AUDIO
    TITLE "2:cjc093_3032"
    INDEX 01 01:21:69
  TRACK 65 AUDIO
    TITLE "0:"
    INDEX 01 01:23:01
  TRACK 66 AUDIO
    TITLE "3:cjc093_3033"
    INDEX 01 01:23:24
  TRACK 67 AUDIO
    TITLE "0:"
    INDEX 01 01:24:37
  TRACK 68 AUDIO
    TITLE "4:cjc093_3034"
    INDEX 01 01:25:02
  TRACK 69 AUDIO
    TITLE "0:"
    INDEX 01 01:27:10
